<svg xmlns="http://www.w3.org/2000/svg" viewBox="0 0 32 32" id="CoffeeProduct"><g data-name="coffee product" fill="#0d6efd" class="color000000 svgShape"><path fill="#ffbf66" d="M22 3H11a2 2 0 0 0-2 2v5h15V5a2 2 0 0 0-2-2zM12 4.25A1.57 1.57 0 0 0 10.25 6v2a.25.25 0 0 1-.5 0V6A2 2 0 0 1 12 3.75a.25.25 0 0 1 0 .5zM13.28 29H7.16a2 2 0 0 1-1.47-.64 2 2 0 0 1-.52-1.51l.36-4.76 1.12-3.36a3.75 3.75 0 0 1 1.47-2 2.08 2.08 0 0 1 1.13-.34 2.43 2.43 0 0 1 .38 0 2 2 0 0 1 1.28.85l1.43 2.13zm12.94-.68a2 2 0 0 1-1.5.68h-3c4.49-.68 1.8-13 2.36-16h.71l1.9 13.74a2 2 0 0 1-.47 1.58z" class="colorffb92c svgShape"></path><path fill="#767fad" d="M24.72 30H7.16A3 3 0 0 1 5 29a3 3 0 0 1-.79-2.27L5 16.66A6.43 6.43 0 0 1 5.29 15l1.31-3.95A3 3 0 0 1 9.44 9H23V5a1 1 0 0 0-1-1 1 1 0 0 1 0-2 3 3 0 0 1 3 3v5a1 1 0 0 1-1 1H9.44a1 1 0 0 0-.95.68l-1.31 3.94a4.74 4.74 0 0 0-.24 1.19l-.78 10.11a1 1 0 0 0 .27.76 1 1 0 0 0 .73.32h17.56a1 1 0 0 0 1-1.13l-1.84-13.74a1 1 0 0 1 .85-1.13 1 1 0 0 1 1.13.86l1.83 13.74A3 3 0 0 1 27 29a3 3 0 0 1-2.28 1Z" class="color201a1a svgShape"></path><path fill="#767fad" d="M13 27a1 1 0 0 1-1-.9l-.85-8.51a5 5 0 0 0-.81-2.28l-1.17-1.76a1 1 0 1 1 1.66-1.1L12 14.2a6.9 6.9 0 0 1 1.14 3.19L14 25.9a1 1 0 0 1-.9 1.1zm7-2.87a3.41 3.41 0 0 1-3.11-3.19A3.32 3.32 0 0 1 19.4 17a3.32 3.32 0 0 1 3.41 3.17 3.32 3.32 0 0 1-2.54 3.9 1.67 1.67 0 0 1-.27.06zM19.71 19h-.07c-.47.06-.91.76-.8 1.68s.73 1.51 1.18 1.44.92-.76.8-1.68c-.1-.87-.66-1.44-1.11-1.44zm-3.66-4.89a1.76 1.76 0 0 0-1.42 2 2 2 0 0 0 .71 1.29 1.55 1.55 0 0 0 1 .34h.19a1.57 1.57 0 0 0 1.13-.74 2 2 0 0 0 .26-1.25 1.76 1.76 0 0 0-1.87-1.64z" class="color201a1a svgShape"></path></g></svg>